<svg id="Layer_1" data-name="Layer 1" xmlns="http://www.w3.org/2000/svg" width="5.644mm" height="5.644mm" viewBox="0 0 16 16">
  <title>fullscreen</title>
  <g>
    <polygon points="4.8 1.6 4.8 0 0 0 0 4.8 1.6 4.8 1.6 2.72 4.64 5.76 5.76 4.64 2.72 1.6 4.8 1.6" fill="#fff"/>
    <polygon points="14.4 13.28 11.36 10.24 10.24 11.36 13.28 14.4 11.2 14.4 11.2 16 16 16 16 11.2 14.4 11.2 14.4 13.28" fill="#fff"/>
    <polygon points="11.2 0 11.2 1.6 13.28 1.6 10.24 4.64 11.36 5.76 14.4 2.72 14.4 4.8 16 4.8 16 0 11.2 0" fill="#fff"/>
    <polygon points="4.64 10.24 1.6 13.28 1.6 11.2 0 11.2 0 16 4.8 16 4.8 14.4 2.72 14.4 5.76 11.36 4.64 10.24" fill="#fff"/>
  </g>
</svg>
