<svg class="icon-error" xmlns="http://www.w3.org/2000/svg" width="2" height="2" viewBox="0 0 2 2">
  <path fill-rule="evenodd" d="M0.413,1.46 L0.611,1.4 L0.738,1.54 C0.761,1.565 0.797,1.563 0.82,1.539 L0.947,1.4 L1.146,1.461 C1.182,1.472 1.218,1.445 1.218,1.408 L1.219,1.237 L1.413,1.213 C1.451,1.208 1.473,1.168 1.457,1.134 L1.385,0.967 L1.541,0.819 C1.563,0.798 1.564,0.763 1.543,0.741 L1.385,0.591 L1.458,0.422 C1.473,0.388 1.45,0.35 1.413,0.345 L1.219,0.321 L1.218,0.15 C1.218,0.112 1.18,0.086 1.145,0.097 L0.947,0.158 L0.82,0.018 C0.797,-0.007 0.761,-0.005 0.738,0.019 L0.611,0.158 L0.412,0.097 C0.376,0.086 0.34,0.113 0.34,0.15 L0.339,0.321 L0.145,0.345 C0.107,0.35 0.085,0.39 0.101,0.424 L0.173,0.591 L0.017,0.739 C-0.005,0.76 -0.006,0.795 0.015,0.817 L0.173,0.967 L0.1,1.136 C0.085,1.17 0.108,1.208 0.145,1.213 L0.339,1.237 L0.34,1.408 C0.34,1.446 0.378,1.472 0.413,1.46 Z M0.779,0.897 L0.661,1.015 C0.639,1.037 0.604,1.037 0.582,1.015 L0.543,0.976 C0.521,0.954 0.521,0.919 0.543,0.897 L0.661,0.779 L0.543,0.661 C0.521,0.639 0.521,0.604 0.543,0.582 L0.582,0.543 C0.604,0.521 0.639,0.521 0.661,0.543 L0.779,0.661 L0.897,0.543 C0.919,0.521 0.954,0.521 0.976,0.543 L1.015,0.582 C1.037,0.604 1.037,0.639 1.015,0.661 L0.897,0.779 L1.015,0.897 C1.037,0.919 1.037,0.954 1.015,0.976 L0.976,1.015 C0.954,1.037 0.919,1.037 0.897,1.015 L0.779,0.897 Z"/>
</svg>
